# xmcd CD database file
# Copyright (C) 1997 Ti Kan
#
# Track frame offsets:
#  182
#  19462
#  36265
#  47595
#  52985
#  61500
#  71840
#  74380
#  91365
#  94770
#  121230
#  128517
#  133655
#  136107
#  141332
#
# Disc length: 1944 seconds
#
# Revision: 1
# Processed by: cddbd v1.4b41PL1 Copyright (c) Steve Scherf et al.
# Submitted via: CDWizzard Release:4.32
#
DISCID=d407960f
DTITLE=Astor Piazzolla - MidSummer Night's Dream
DYEAR=1900
DGENRE=
TTITLE0=Ouverture
TTITLE1=Sensuel
TTITLE2=Dansee
TTITLE3=Cloche
TTITLE4=Milonga
TTITLE5=Puck Arrabal
TTITLE6=Artisana I
TTITLE7=Introduction et Berceuse
TTITLE8=Bottom
TTITLE9=Oberon Final
TTITLE10=Duo I
TTITLE11=Murmullo Sensuel
TTITLE12=Sombrio
TTITLE13=Abstract
TTITLE14=Artisane I
EXTD=
EXTT0=
EXTT1=
EXTT2=
EXTT3=
EXTT4=
EXTT5=
EXTT6=
EXTT7=
EXTT8=
EXTT9=
EXTT10=
EXTT11=
EXTT12=
EXTT13=
EXTT14=
PLAYORDER=
